<svg version="1.2" xmlns="http://www.w3.org/2000/svg" viewBox="0 0 523 101" width="523" height="101"><style>.s0{fill:#03316c}</style><path fill-rule="evenodd" class="s0" d="m87.1 25.9v50.1l-43.4 25.1l-43.4-25.1v-50.1l43.4-25.1zm-35.1 37.3l-1-10.9l3.7-9.7h-22.1l3.7 9.7l-1.1 10.9zm-11.7 8l-7.7-7.3v-11.6l-10.1-6.4l-11.5 8.5l15.6 27.1h6.3l7.4-6.9zm-17.8-31.3h42.3l-4.1-17.4h-34.2zm53.8 14.4l-11.4-8.6l-10 6.5v11.6l-7.7 7.3v3.5l7.4 6.8h6.2zm59.5 19.8c-11.5 0-19.9-9-19.9-20c0-11 8.5-20.3 20-20.3c7.3 0 11.8 2.7 15.4 6.6l-5.5 5.9c-2.7-2.9-5.6-4.8-10-4.8c-6.4 0-11.1 5.6-11.1 12.4c0 7 4.8 12.5 11.6 12.5c4.2 0 7.2-2 10-4.8l5.3 5.3c-3.9 4.2-8.3 7.2-15.8 7.2zm32.5 0h-8.9v-40.2h8.9v9.4c2.4-5.7 6.9-9.7 13.7-9.4v9.4h-0.5c-7.7 0-13.1 5-13.1 15.3zm60-40.3l-19.5 51.1h-9l4.3-10.8l-16.8-40.3h9.4l11.4 29.8l11-29.8zm28.1 40.2c-6.3 0-10.4-3.2-13-6.8v17.7h-8.9v-51.1h8.9v7.2c2.9-4 6.9-7.2 13-7.2c9.1 0 18 7.2 18 20.1c0 12.8-8.8 20.1-18 20.1zm-2-32.5c-6 0-11.2 4.9-11.2 12.4c0 7.6 5.3 12.4 11.2 12.4c6.1 0 11-4.8 11-12.4c0-7.6-5-12.4-11-12.4zm39.4 0.7v19c0 3.4 1.7 4.8 4.8 4.8h3.5v7.9h-6.1c-6.4 0-11-2.9-11-11.3v-20.4h-4.9v-7.6h4.9v-10.6h8.9v10.6h8.3v7.6zm36.2 31.9c-11.7 0-20.4-9-20.4-20c0-11.1 8.8-20.3 20.6-20.3c11.8 0 20.5 9 20.5 20.1c0 11-8.7 20.2-20.7 20.2zm0-32.6c-7.1 0-11.7 5.6-11.7 12.4c0 6.9 4.9 12.5 11.7 12.5c7.1 0 11.7-5.6 11.7-12.4c0.2-6.8-4.7-12.5-11.7-12.5zm105.3 32.6c-11.7 0-20.4-9-20.4-20c0-11.1 8.8-20.3 20.6-20.3c11.8 0 20.5 9 20.5 20.1c0 11-8.8 20.2-20.7 20.2zm0-32.6c-7.1 0-11.7 5.6-11.7 12.4c0 6.9 4.9 12.5 11.7 12.5c7.1 0 11.7-5.6 11.7-12.4c0.2-6.8-4.7-12.5-11.7-12.5zm73.3-7.7c8.4 0 13.6 5.3 13.6 14.8v25.4h-8.9v-22.8c0-6.2-2.9-9.4-7.8-9.4c-4.8 0-8.3 3.4-8.3 9.6v22.7h-8.9v-22.9c0-6-3-9.4-7.8-9.4c-4.9 0-8.3 3.7-8.3 9.7v22.6h-8.9v-40.3h8.9v6.6c2.5-3.4 5.8-6.6 11.7-6.6c5.6 0 9.4 2.7 11.5 6.8c3.3-4.1 7.3-6.8 13.2-6.8zm-141.6 32.1v4.6l-0.3 0.4l-3.9 2.2h-0.5l-3.9-2.2l-0.2-0.4v-4.6l0.2-0.4l3.9-2.2h0.5l3.9 2.2zm26.8 8.1c-11.5-0.3-19.7-9.4-19.6-20.4c0.2-11 8.9-20.1 20.4-19.8c7.3 0.2 11.8 3 15.3 7l-5.6 5.8c-2.6-2.9-5.5-5-9.9-5c-6.4-0.1-11.2 5.3-11.3 12.2c-0.2 7 4.5 12.6 11.3 12.7c4.2 0.1 7.3-1.8 10.1-4.6l5.2 5.4c-3.8 4-8.3 6.9-15.9 6.7z" /></svg>