<svg width="545" height="150" viewBox="0 0 545 150" fill="none" xmlns="http://www.w3.org/2000/svg">
<path d="M97.1948 150H70.776L57.6256 127.092H84.0122L97.1948 150Z" fill="#428F8F"/>
<path d="M97.1948 99.8246L92.2889 108.413L83.98 123.077H57.5826L62.51 114.424H78.2797C78.3297 114.429 78.38 114.429 78.43 114.424H78.7413C78.8485 114.373 78.9525 114.316 79.0526 114.252H79.117L79.3854 114.027L79.5035 113.887L79.5786 113.802L79.6967 113.619L79.7611 113.501L87.4474 100.19L87.3508 100.018L97.1948 99.8246Z" fill="#428F8F"/>
<path d="M113.92 124.977L100.662 147.971L87.4797 125.073L100.662 101.811L113.92 124.977Z" fill="#428F8F"/>
<path d="M110.549 25.4957L115.251 33.7402H106.47L100.834 23.9176L113.458 1.96459L117.881 9.54349L110.163 23.0588C110.117 23.1342 110.077 23.2132 110.045 23.295C110.045 23.295 110.045 23.3916 109.991 23.4346V23.8854C110.004 24.2104 110.096 24.5274 110.259 24.8086L110.549 25.4957Z" fill="#428F8F"/>
<path d="M170.45 24.6582L158.47 46.7723L158.438 46.7079L145.277 24.0248L157.407 2.08252L170.439 24.6582H170.45Z" fill="#428F8F"/>
<path d="M153.961 0.0214909L141.841 21.9316L141.766 22.0604H115.294L121.67 11.0356L122.518 9.5649L127.961 0.182516L153.961 0.0214909Z" fill="#428F8F"/>
<path d="M155.11 48.9408H145.867V48.8012L137.751 34.6954L137.622 34.5129C137.556 34.4265 137.48 34.3474 137.397 34.2768L137.343 34.2231L137.086 34.0406L136.796 33.901C136.696 33.8576 136.591 33.8252 136.484 33.8044C136.344 33.7708 136.2 33.7528 136.055 33.7507H119.802L115.412 26.0967H115.519L125.18 26.043H129.743L141.83 25.9679L141.906 26.0967L155.034 48.8334L155.11 48.9408Z" fill="#428F8F"/>
<path d="M119.792 110.356H110.13L102.401 96.8618L102.337 96.7437L102.261 96.6363L102.176 96.5397L102.079 96.4431L101.982 96.3572L101.896 96.1747L101.682 96.0244L101.553 95.9708H101.199C101.145 95.9606 101.091 95.9606 101.038 95.9708H89.8625L94.6933 87.5975H106.502L119.792 110.356Z" fill="#428F8F"/>
<path d="M149.399 63.2613L123.291 108.37L110.044 85.4183L129.432 51.3133V51.3025L129.517 51.1522L136.012 39.7302L141.165 48.8335L141.219 48.9194L142.496 51.1522L142.55 51.2381L143.462 52.8376L143.505 52.9235L143.548 52.9986L149.399 63.2613Z" fill="#428F8F"/>
<path d="M106.277 83.4216L94.7794 83.3787L87.4367 70.604L98.805 51.2274L98.848 51.1522L100.168 48.8979L105.418 39.9664L106.33 38.3883L106.685 37.7872H108.778L117.57 37.7549L119.341 37.7442H121.338L123.41 37.7335L132.266 37.7013L106.277 83.4216Z" fill="#428F8F"/>
<path d="M91.2687 85.3109L90.0771 87.372L85.2356 95.7668L85.1497 95.9278L82.9276 99.7709L82.831 99.9427L77.9787 108.348L76.9482 106.534L52.1182 63.0573L57.958 52.8376L72.5576 52.8268L72.579 52.859L82.788 70.5932L82.9276 70.8294L85.096 74.5867L85.2249 74.8228L90.1415 83.3679L91.2687 85.3109Z" fill="#428F8F"/>
<path d="M54.4049 50.959L54.3083 51.12L48.6295 61.0499L22.2321 60.9103L26.8374 52.9772H43.6377C43.716 52.9883 43.7955 52.9883 43.8739 52.9772H44.1959L44.3891 52.902L44.6038 52.7732L44.8078 52.6229L44.9044 52.5263C45.0331 52.3978 45.1449 52.2535 45.2372 52.0969L49.9499 43.584L50.0143 43.466L54.4049 50.959Z" fill="#428F8F"/>
<path d="M74.5225 110.399L64.7966 110.452L60.1591 110.484L48.3613 110.549L22.2216 64.9359L48.6297 65.0648L67.3515 97.8494L68.0922 99.1376L69.6596 101.896L74.5225 110.399Z" fill="#428F8F"/>
<path d="M39.9768 48.9623L13.1286 48.9731L0.0104834 26.0753H26.4078L39.9768 48.9623Z" fill="#428F8F"/>
<path d="M103.11 35.9514L95.5199 48.8764L74.898 48.8549H57.8079V48.8334H57.6254L57.5717 48.7476L52.2472 39.4296L51.4957 38.1199L49.8962 35.3395L44.5502 26.0001H97.3878L97.4522 26.1075L103.11 35.9514Z" fill="#428F8F"/>
<path d="M109.969 0L97.3449 21.996L97.2805 22.1033L59.5685 22.0175H54.8558L46.2356 22.0067H44.5717L49.6279 13.5476L51.9574 9.68296L57.7328 0.0751449L109.969 0Z" fill="#428F8F"/>
<path d="M47.6632 39.2794L47.6095 39.3653L43.4229 46.8798L38.1949 38.0341L29.9075 24.0357L42.5104 1.95384L47.266 9.66156L39.3651 22.8656C39.1848 23.1676 39.0884 23.5123 39.0859 23.864C39.0845 24.2168 39.1732 24.5641 39.3436 24.873L39.4187 24.9911L44.6037 33.9656L46.9225 37.9697L47.6632 39.2794Z" fill="#428F8F"/>
<path d="M38.9895 0.0752183L26.4403 22.0605H0L12.5599 0.0752183H38.9895Z" fill="#428F8F"/>
<path d="M210.754 86.2404V63.7519H275.115V52.5H215.521H206.538L200.023 63.9129V67.5V97.4923H275.115V86.2404H210.754Z" fill="black"/>
<path d="M354.124 52.5077V86.2481H300.907V52.5077H290.269V86.0412L296.784 97.3697L360.417 97.5H364.77V52.5077H354.124Z" fill="black"/>
<path d="M454.961 68.3431L455.031 63.8209L448.515 52.5H380.613V97.4923L448.515 97.4003L455.038 86.0795V80.6221L454.961 68.3431ZM444.491 86.2481H391.259V80.6221H444.491V86.2481ZM444.491 69.3855H391.259V63.7673H444.491V69.3855Z" fill="black"/>
<path d="M480.738 86.2481V80.6221H544.938V69.3779H480.738V63.7519H544.938V52.5077H476.553L470.03 63.9206V97.5H544.938V86.2481H480.738Z" fill="black"/>
</svg>
