<?xml version="1.0" standalone="no"?>
<!DOCTYPE svg PUBLIC "-//W3C//DTD SVG 20010904//EN"
 "http://www.w3.org/TR/2001/REC-SVG-20010904/DTD/svg10.dtd">
<svg version="1.0" xmlns="http://www.w3.org/2000/svg"
 width="1000.000000pt" height="221.000000pt" viewBox="0 0 1000.000000 221.000000"
 preserveAspectRatio="xMidYMid meet">

<g transform="translate(0.000000,221.000000) scale(0.100000,-0.100000)"
fill="#000000" stroke="none">
<path d="M330 2021 l-325 -188 0 -728 0 -728 327 -189 328 -189 327 190 328
189 0 727 0 727 -320 185 c-176 102 -324 187 -330 189 -5 2 -156 -82 -335
-185z m562 -93 c174 -101 225 -135 215 -144 -22 -20 -434 -254 -447 -254 -18
0 -460 253 -457 262 2 7 446 267 456 268 2 0 107 -59 233 -132z m-525 -385
c84 -49 153 -91 153 -95 0 -4 -269 -163 -382 -225 -5 -2 -8 100 -8 227 l0 231
43 -25 c23 -14 111 -65 194 -113z m821 -208 l-3 -115 -198 114 -199 114 69 40
c37 22 127 73 198 115 l130 75 3 -114 c1 -63 1 -166 0 -229z m-598 -230 c0
-124 -2 -225 -4 -225 -13 0 -378 219 -376 226 1 8 356 221 373 223 4 1 7 -100
7 -224z m348 109 c100 -58 182 -107 182 -109 0 -4 -360 -212 -382 -220 -17 -7
-18 8 -18 220 0 212 1 227 18 221 9 -4 99 -55 200 -112z m-501 -398 l222 -128
243 139 c134 77 253 145 266 152 l22 12 0 -268 0 -268 -265 -153 -266 -154
-264 153 -265 153 0 269 0 269 43 -24 c23 -13 142 -82 264 -152z"/>
<path d="M2317 1683 c-4 -3 -7 -260 -7 -570 l0 -563 120 0 120 0 0 240 0 240
320 0 320 0 0 120 0 120 -320 0 -320 0 0 90 0 90 390 0 391 0 -3 118 -3 117
-501 3 c-275 1 -504 -1 -507 -5z"/>
<path d="M3830 1670 c-8 -16 -429 -1013 -467 -1108 -4 -10 23 -12 127 -10
l132 3 61 148 61 147 234 -2 233 -3 63 -145 62 -145 127 -3 c98 -2 127 0 127
10 0 7 -108 263 -240 568 l-239 555 -135 3 c-128 2 -136 2 -146 -18z m230
-475 l69 -160 -74 -3 c-41 -2 -110 -2 -154 0 l-79 3 67 160 c37 88 71 169 75
180 l8 20 9 -20 c5 -11 40 -92 79 -180z"/>
<path d="M4780 1120 l0 -571 118 3 117 3 5 347 5 347 280 -349 280 -350 133 0
132 0 0 570 0 571 -117 -3 -118 -3 -5 -347 -5 -346 -280 349 -280 349 -132 0
-133 0 0 -570z"/>
<path d="M6120 1570 l0 -120 190 0 190 0 2 -447 3 -448 120 0 120 0 3 448 2
447 190 0 190 0 0 120 0 120 -505 0 -505 0 0 -120z"/>
<path d="M7513 1680 c-56 -12 -99 -45 -123 -95 -19 -39 -20 -62 -20 -469 0
-408 1 -428 20 -466 11 -22 39 -52 62 -67 l41 -28 358 -3 c236 -2 372 1 399 8
47 13 103 58 119 98 8 20 11 154 9 473 l-3 446 -28 36 c-55 72 -51 72 -442 74
-192 1 -369 -2 -392 -7z m627 -560 l0 -330 -265 0 -265 0 0 330 0 330 265 0
265 0 0 -330z"/>
<path d="M8680 1120 l0 -571 118 3 117 3 5 371 5 371 194 -249 c107 -136 200
-253 206 -258 10 -8 65 56 216 250 l204 261 3 -376 2 -375 120 0 120 0 0 570
0 570 -117 0 c-65 0 -123 -4 -129 -8 -5 -4 -99 -121 -208 -259 -108 -139 -200
-253 -204 -252 -4 0 -97 116 -207 257 l-201 257 -122 3 -122 3 0 -571z"/>
</g>
</svg>
