<?xml version="1.0" encoding="utf-8"?>
<!-- Generator: Adobe Illustrator 25.0.1, SVG Export Plug-In . SVG Version: 6.00 Build 0)  -->
<svg version="1.0" id="katman_1" xmlns="http://www.w3.org/2000/svg" xmlns:xlink="http://www.w3.org/1999/xlink" x="0px" y="0px"
	 viewBox="0 0 143 98" style="enable-background:new 0 0 143 98;" xml:space="preserve">
<style type="text/css">
	.st0{fill:url(#SVGID_1_);}
	.st1{fill:#293258;}
</style>
<linearGradient id="SVGID_1_" gradientUnits="userSpaceOnUse" x1="34.4556" y1="56.4705" x2="20.2385" y2="42.2533" gradientTransform="matrix(1 0 0 -1 0 100)">
	<stop  offset="0" style="stop-color:#00E8A2"/>
	<stop  offset="1" style="stop-color:#00ADE8"/>
</linearGradient>
<path class="st0" d="M35.2,38.4c-2.4,0-4.4,2-4.5,4.4v4.9c-0.4,0-0.9,0.1-1.4,0.1c-0.5,0-1,0-1.4,0.1v-5.1c0-2.4-2-4.4-4.5-4.4
	c-2.4,0-4.3,2-4.4,4.4v11.8c0.1,2.4,2,4.4,4.5,4.4c2.4-0.1,4.4-2,4.4-4.4v-4.9c0.4,0,0.9-0.1,1.4-0.1c0.5,0,1,0,1.4-0.1v5
	c0.1,2.4,2,4.4,4.5,4.4c2.4-0.1,4.4-2,4.4-4.4V42.8C39.6,40.4,37.6,38.4,35.2,38.4z M23.5,40.2c1.5,0,2.6,1.2,2.6,2.6V48
	c-1.3,0.2-2.6,0.6-3.8,1.1c-0.5,0.3-1,0.5-1.5,0.9v-7.2C20.9,41.4,22,40.2,23.5,40.2z M26.1,54.6c0,1.5-1.2,2.6-2.6,2.6
	s-2.6-1.2-2.6-2.6v-1.2c0-1,0.8-2,2.2-2.6c1-0.4,2-0.7,3.1-0.9L26.1,54.6z M35.2,57.2c-1.5,0-2.6-1.2-2.6-2.6v-5.2
	c1.3-0.2,2.6-0.6,3.8-1.1c0.5-0.3,1-0.5,1.5-0.9v7.2C37.8,56.1,36.6,57.2,35.2,57.2z M35.6,46.6c-1,0.4-2,0.7-3.1,0.9v-4.7
	c0-1.5,1.2-2.6,2.6-2.6s2.6,1.2,2.6,2.6V44C37.8,45,37,46,35.6,46.6z"/>
<path class="st1" d="M99.2,45.5c-2.8,0-5.1,2.2-5,5.1c0,2.8,2.2,5.1,5.1,5c2.8,0,5-2.2,5-5.1C104.2,47.8,102,45.5,99.2,45.5z
	 M102.6,50.6c0,1.9-1.5,3.4-3.4,3.4c-1.9,0-3.4-1.5-3.4-3.4c0-1.9,1.5-3.4,3.4-3.4C101.1,47.2,102.6,48.7,102.6,50.6z"/>
<path class="st1" d="M69,45.6c-0.4,0-0.8,0.4-0.8,0.8v0.4c-2-1.9-5.3-1.7-7.1,0.3c-1.9,2-1.7,5.3,0.3,7.1c1.9,1.8,4.9,1.8,6.8,0v0.4
	c0,0.4,0.3,0.8,0.8,0.8c0.4,0,0.8-0.3,0.8-0.8v-0.1v-8.3C69.8,45.9,69.4,45.6,69,45.6z M68.1,50.6c0,1.9-1.5,3.4-3.4,3.4
	c-1.9,0-3.4-1.5-3.4-3.4c0-1.9,1.5-3.4,3.4-3.4C66.6,47.2,68.1,48.7,68.1,50.6z"/>
<path class="st1" d="M77.7,46.3c0,0.4-0.4,0.8-0.8,0.8h-0.1c-1.9,0-3.4,1.5-3.4,3.4c-0.1,0.2,0,2.8,0,4.3c-0.1,0.4-0.4,0.8-0.9,0.7
	c-0.4-0.1-0.7-0.4-0.7-0.8v-8.3c0-0.4,0.4-0.8,0.8-0.8h0.1c0.4,0.1,0.8,0.4,0.8,0.8v0.4c0.9-0.8,2.1-1.3,3.4-1.3H77
	C77.3,45.5,77.7,45.9,77.7,46.3z"/>
<path class="st1" d="M113.9,49.7v5c0,0.4-0.4,0.8-0.8,0.8c-0.4,0-0.8-0.4-0.8-0.8v-0.8v-4.2c0-1.4-1.2-2.6-2.6-2.6
	c-0.1,0-0.1,0-0.2,0c-1.3,0.1-2.4,1.3-2.4,2.6v1v3.1v0.8c0,0.4-0.4,0.8-0.8,0.8c-0.4,0-0.8-0.4-0.8-0.8v-8.3c0-0.4,0.4-0.8,0.8-0.8
	c0.4,0,0.8,0.4,0.8,0.8v0.1c0.6-0.5,1.5-0.8,2.4-0.9c2.3-0.1,4.3,1.7,4.4,4C113.9,49.6,113.9,49.7,113.9,49.7z"/>
<path class="st1" d="M58.1,42.6v12.2c0,0.4-0.4,0.8-0.8,0.8s-0.8-0.4-0.8-0.8v-5.5h-8.3v5.5c0,0.4-0.4,0.8-0.8,0.8s-0.8-0.4-0.8-0.8
	V42.6c0-0.4,0.4-0.8,0.8-0.8c0.4,0,0.8,0.4,0.8,0.8v5.3h8.4v-5.3c0-0.4,0.4-0.8,0.8-0.8C57.7,41.8,58.1,42.2,58.1,42.6z"/>
<path class="st1" d="M93,50.1v4.6c0,0.4-0.4,0.8-0.8,0.8c-0.4,0-0.8-0.4-0.8-0.8v-4.2v-1.1c0-1.3-1-2.3-2.2-2.3s-2.3,1-2.3,2.2
	c0,0.1,0,0.1,0,0.1v5.3c0,0.4-0.3,0.8-0.8,0.8c-0.4,0-0.8-0.3-0.8-0.8v-0.1v-4.3v-1.1c0-1.3-1-2.3-2.2-2.3s-2.3,1-2.3,2.2
	c0,0.1,0,0.1,0,0.1v5.3c0,0.4-0.3,0.8-0.8,0.8c-0.4,0-0.8-0.3-0.8-0.8v-0.1v-8.3c0-0.4,0.4-0.8,0.8-0.8c0.4,0,0.8,0.3,0.8,0.7
	c1.7-1.2,4.1-0.9,5.4,0.8c1.3-1.7,3.8-2,5.4-0.7c1,0.8,1.5,1.9,1.5,3.1L93,50.1z"/>
<path class="st1" d="M123.9,46.7l-5.5,11.9c-0.3,0.4-0.8,0.5-1.2,0.3c-0.3-0.2-0.5-0.6-0.4-1l1.5-3.2l-3.7-8
	c-0.3-0.4-0.1-0.9,0.3-1.2c0.4-0.3,0.9-0.1,1.2,0.3c0,0.1,0.1,0.1,0.1,0.1l3.1,6.7l3.1-6.7c0.1-0.4,0.6-0.6,1-0.5
	c0.4,0.1,0.6,0.6,0.5,1C124,46.6,123.9,46.7,123.9,46.7z"/>
</svg>
