<svg id="图层_1" data-name="图层 1" xmlns="http://www.w3.org/2000/svg" viewBox="0 0 3508 1190"><defs><style>.cls-1{fill:#fcbf19;}</style></defs><title>2</title><path class="cls-1" d="M848.56,422.57,726,502.75V708a16.82,16.82,0,0,1-8.41,14.57l-128.25,74V748.8l86.89-50.17a16.81,16.81,0,0,0,8.41-14.56V510.72a16.84,16.84,0,0,0-8.41-14.57l-7.61-4.39L526.06,409.48a16.79,16.79,0,0,0-16.82,0L370,489.88l-10.86,6.27a16.82,16.82,0,0,0-8.41,14.57V684.07a16.79,16.79,0,0,0,8.41,14.56L446,748.8v47.76l-128.25-74A16.84,16.84,0,0,1,309.34,708V498.74L188,419.39a6,6,0,0,0-9.31,4.49q-.15,1.83-.15,3.69V767.21a45.52,45.52,0,0,0,22.75,39.42L495.42,976.45c.81.46,1.63.9,2.45,1.31V732.46a14.32,14.32,0,0,0-7.16-12.4l-84.09-48.55a16.84,16.84,0,0,1-8.41-14.57V537.84a16.82,16.82,0,0,1,8.41-14.56l103.15-59.55a16.78,16.78,0,0,1,16.81,0l103.15,59.55a16.82,16.82,0,0,1,8.41,14.56v119.1a16.84,16.84,0,0,1-8.41,14.57l-84.1,48.55a14.32,14.32,0,0,0-7.16,12.4v245.3c.83-.41,1.65-.85,2.46-1.31L835.07,806.63a45.52,45.52,0,0,0,22.75-39.42V427.57A6,6,0,0,0,848.56,422.57Z"/><path class="cls-1" d="M216.45,389.49l114.73,75,178.06-102.8a16.84,16.84,0,0,1,16.82,0L707.37,466.39,822.59,391a6,6,0,0,0-.28-10.25L540.93,218.34a45.51,45.51,0,0,0-45.51,0L216.74,379.24A6,6,0,0,0,216.45,389.49Z"/><path class="cls-1" d="M1188.58,490.27V750.2h-63.46V490.27h-96.53V437.05h260v53.22Z"/><path class="cls-1" d="M1604.36,437.05V750.2H1540.9V614.84H1384.1V750.2h-63.46V437.05h63.46V564.83h156.8V437.05Z"/><path class="cls-1" d="M1726.62,437.05V750.2h-63.46V437.05Z"/><path class="cls-1" d="M2096.34,437.05V750.2H1988.78l-95.55-171.83q-7.11-12.86-22.3-45l-10.78-22.48-10.54-22.48h-2.44l1,20.64.73,20.42.49,41.07V750.2h-63.46V437.05h107.56l87,158.75Q1992,616.92,2007.16,647l12.74,25.47,12.74,25.69h2.2l-.73-20.19-.74-20.19-.49-40.37V437.05Z"/><path class="cls-1" d="M2218.6,437.05V564.6h29.89l111.24-127.55h78.89l-135,152.1L2452.83,750.2h-81.34L2249,614.61H2218.6V750.2h-63.46V437.05Z"/><path class="cls-1" d="M2542,437.05V750.2h-63.45V437.05Z"/><path class="cls-1" d="M2816.42,437.05h63.46V645.36q0,65.37-26.83,86.49T2743.41,753q-87.47,0-114.66-20t-27.2-84.19V437.05H2665V648.8q0,34.63,13.23,43.93t62.23,9.29q50.22,0,63.09-9.4t12.86-46.12Z"/><path class="cls-1" d="M3329.47,437.05V750.2H3266V579.51q0-20.41,1.22-46.34l1.23-23.4,1.22-23.17h-2l-7.59,21.8-7.35,21.79q-10.29,29.37-15.93,43.36l-73.5,176.65h-57.82L3031.3,574.93q-6.14-14.46-16.17-43.36l-7.6-21.8-7.59-21.56h-2l1.22,22.71,1.23,22.94q1.47,26.63,1.47,45.65V750.2h-63.46V437.05h103.39l59.79,145q6.12,15.13,16.17,43.36l7.35,21.79,7.59,21.57h2.21l7.1-21.57,7.35-21.56q9.06-27.3,15.68-43.13l58.81-145.45Z"/></svg>