<?xml version="1.0" encoding="utf-8"?>
<!-- Generator: Adobe Illustrator 25.3.0, SVG Export Plug-In . SVG Version: 6.00 Build 0)  -->
<svg version="1.1" id="图层_1" xmlns="http://www.w3.org/2000/svg" xmlns:xlink="http://www.w3.org/1999/xlink" x="0px" y="0px"
	 viewBox="0 0 650 650" style="enable-background:new 0 0 650 650;" xml:space="preserve">
<style type="text/css">
	.st0{fill:#FCBF19;}
</style>
<g>
	<path class="st0" d="M542.41,211.54l-80.68,52.76v135.03c0,3.95-2.11,7.61-5.53,9.58l-84.4,48.73V426.2l57.17-33.01
		c3.42-1.98,5.53-5.63,5.53-9.58V282.09v-12.55c0-3.95-2.11-7.61-5.53-9.58l-5.01-2.89l-93.78-54.14c-3.42-1.98-7.64-1.98-11.07,0
		l-91.64,52.91l-7.15,4.13c-3.42,1.98-5.53,5.63-5.53,9.58v9.92v104.15c0,3.95,2.11,7.61,5.53,9.58l57.17,33.01v31.43l-84.4-48.73
		c-3.42-1.98-5.53-5.63-5.53-9.58V261.66l-79.85-52.22c-2.5-1.64-5.88-0.02-6.13,2.96c-0.07,0.8-0.1,1.61-0.1,2.43v223.5
		c0,10.7,5.71,20.59,14.97,25.94l193.55,111.75c0.53,0.31,1.07,0.59,1.62,0.86V415.45c0-3.37-1.8-6.48-4.71-8.16l-55.34-31.95
		c-3.42-1.98-5.53-5.63-5.53-9.58v-78.37c0-3.95,2.11-7.61,5.53-9.58l67.87-39.19c3.42-1.98,7.64-1.98,11.07,0l67.87,39.19
		c3.42,1.98,5.53,5.63,5.53,9.58v78.37c0,3.95-2.11,7.61-5.53,9.58l-55.34,31.95c-2.92,1.68-4.71,4.79-4.71,8.16v161.41
		c0.54-0.27,1.08-0.56,1.62-0.86l193.55-111.75c9.27-5.35,14.97-15.24,14.97-25.94v-223.5C548.5,211.7,545.02,209.83,542.41,211.54z
		"/>
	<path class="st0" d="M126.46,189.77l75.5,49.37l117.17-67.65c3.42-1.98,7.64-1.98,11.07,0l119.31,68.88l75.82-49.58
		c2.47-1.62,2.37-5.27-0.19-6.75L339.97,77.14c-9.27-5.35-20.68-5.35-29.95,0L126.64,183.02
		C124.09,184.5,123.99,188.15,126.46,189.77z"/>
</g>
</svg>
